<?xml version="1.0" standalone="no"?>
<!DOCTYPE svg PUBLIC "-//W3C//DTD SVG 20010904//EN"
 "http://www.w3.org/TR/2001/REC-SVG-20010904/DTD/svg10.dtd">
<svg version="1.0" xmlns="http://www.w3.org/2000/svg"
 width="704.000000pt" height="487.000000pt" viewBox="0 0 704.000000 487.000000"
 preserveAspectRatio="xMidYMid meet">

<g transform="translate(0.000000,487.000000) scale(0.100000,-0.100000)"
fill="#000000" stroke="none">
<path d="M830 4530 l0 -199 -325 6 c-274 5 -325 4 -330 -8 -8 -21 -11 -4169
-3 -4169 4 0 9 9 13 20 6 19 32 19 3378 20 2201 0 3375 4 3381 10 7 7 6 14 -2
22 -9 9 -12 479 -12 2054 l0 2041 -37 7 c-21 3 -149 6 -284 6 -136 0 -261 3
-278 6 l-31 7 0 173 0 173 -46 7 c-26 3 -229 4 -453 1 l-406 -5 -165 -41 c-91
-23 -226 -57 -300 -76 -422 -108 -507 -130 -625 -161 -219 -59 -239 -63 -243
-59 -2 2 -6 40 -9 84 l-6 81 -473 0 -474 0 0 -100 c0 -55 -3 -100 -7 -100 -5
0 -64 18 -133 39 -69 22 -159 49 -200 61 -41 12 -91 28 -110 35 -19 8 -78 24
-130 35 -52 11 -111 25 -130 30 -19 6 -141 37 -270 70 -129 32 -289 75 -355
95 l-120 35 -407 0 -408 0 0 -200z m860 146 c30 -7 129 -34 220 -59 91 -25
275 -73 410 -106 309 -77 368 -93 455 -124 73 -26 133 -44 250 -74 l70 -18 3
-113 3 -112 109 0 110 0 0 -125 0 -125 -39 0 c-113 0 -312 -53 -431 -116 -36
-19 -85 -42 -110 -53 -25 -10 -83 -47 -129 -81 l-83 -63 -239 241 c-132 133
-244 242 -248 242 -5 0 -49 -44 -96 -97 -48 -54 -99 -108 -113 -120 l-27 -22
238 -235 238 -234 -63 -77 c-97 -117 -155 -209 -219 -340 -197 -406 -228 -814
-94 -1233 42 -132 153 -354 220 -442 28 -36 63 -84 79 -107 15 -23 76 -91 135
-151 59 -60 105 -114 103 -121 -10 -30 -138 17 -165 60 -14 24 -113 95 -172
124 -38 19 -66 20 -644 23 l-604 2 7 303 c3 166 9 992 13 1835 l6 1532 376 0
c282 0 390 -4 431 -14z m4555 -331 c3 -176 2 -987 -1 -1802 l-7 -1483 -216 0
c-119 0 -286 -5 -371 -10 -213 -13 -627 -68 -669 -89 -9 -4 -59 -16 -111 -25
-52 -10 -101 -20 -108 -22 -18 -5 20 47 88 120 58 61 83 95 164 217 59 87 162
305 181 382 9 34 18 68 20 75 3 7 4 13 4 15 0 1 4 15 10 31 35 91 56 423 38
576 -10 76 -36 208 -52 255 -7 22 -18 58 -25 80 -23 72 -112 258 -151 317 -22
31 -39 59 -39 62 0 10 -72 109 -127 174 l-53 64 47 41 c26 23 56 53 67 66 12
13 42 44 68 69 143 136 288 284 288 294 0 6 -52 63 -114 126 l-115 114 -23
-18 c-13 -11 -80 -77 -149 -148 -127 -132 -302 -306 -307 -306 -6 0 -60 37
-120 82 -35 27 -69 48 -77 48 -7 0 -46 17 -87 39 -40 21 -104 51 -141 66 -69
27 -229 65 -279 65 -57 0 -58 2 -58 131 l0 119 120 0 121 0 -3 126 -3 127 101
22 c55 13 154 39 220 58 65 20 139 40 164 45 47 11 227 57 345 90 39 11 142
36 230 57 88 20 192 46 230 56 63 16 111 18 482 16 l412 -2 6 -320z m-5460
-52 l48 -6 -7 -1186 c-3 -652 -9 -1493 -12 -1868 -6 -655 -6 -683 12 -683 10
0 50 9 88 20 135 37 313 53 621 55 160 1 268 -2 240 -5 -27 -4 -41 -8 -29 -8
12 -1 49 -5 84 -9 40 -4 61 -3 57 4 -4 6 7 7 26 4 31 -4 32 -5 7 -13 -19 -6
-14 -7 18 -4 27 3 40 1 36 -6 -5 -7 2 -9 19 -6 15 3 24 2 22 -2 -3 -4 4 -10
15 -13 11 -3 17 -1 14 4 -6 11 48 0 56 -11 3 -4 34 -12 70 -19 36 -7 74 -17
85 -21 18 -8 126 -33 185 -43 14 -3 79 -19 145 -37 298 -80 330 -90 280 -84
-27 3 -58 10 -67 15 -9 5 -27 9 -40 9 -13 0 -51 7 -83 16 -77 21 -99 26 -285
63 -191 37 -362 57 -635 72 -304 17 -657 -6 -905 -57 -76 -16 -429 -100 -464
-110 -18 -6 -18 13 -12 707 3 393 9 1277 12 1966 l7 1252 116 4 c64 1 141 4
172 5 31 1 78 -1 104 -5z m5955 -1963 c0 -1482 -3 -1970 -12 -1970 -11 0 -147
33 -383 95 -272 70 -477 89 -883 82 -194 -3 -333 -11 -401 -21 -235 -36 -462
-80 -556 -107 -122 -36 -216 -51 -115 -19 36 12 74 25 85 30 21 9 182 54 275
76 373 88 391 92 533 110 102 13 185 15 395 11 147 -2 278 -7 292 -10 14 -3
66 -11 115 -17 50 -7 110 -21 134 -31 24 -10 49 -19 56 -19 12 0 25 1508 25
3037 l0 723 220 0 220 0 0 -1970z m-6397 910 c4 -578 10 -1207 13 -1398 4
-191 3 -344 -1 -340 -20 19 -47 2788 -27 2788 5 0 11 -424 15 -1050z m3155
-441 l2 -707 -24 -6 c-13 -3 -38 -22 -55 -41 -43 -49 -43 -104 -2 -146 37 -37
79 -38 120 -3 17 14 31 32 31 40 0 8 5 14 10 14 6 0 10 -99 10 -277 1 -153 3
-327 5 -388 2 -60 7 -198 10 -307 l6 -196 -29 -7 c-44 -9 -226 13 -327 40
-171 46 -192 53 -291 99 -161 76 -263 152 -411 308 -207 217 -327 475 -368
797 l-7 53 192 -7 c183 -7 193 -7 186 10 -4 11 0 25 9 35 12 13 13 20 5 25
-18 11 -174 6 -178 -5 -2 -6 -49 -10 -108 -10 l-104 0 0 58 c0 89 37 296 72
396 60 176 155 342 269 469 28 32 58 57 67 57 25 -1 73 -47 118 -114 21 -32
54 -71 72 -86 18 -14 53 -54 77 -88 25 -34 50 -62 55 -62 5 0 17 11 25 24 16
23 15 26 -30 73 -25 26 -57 70 -71 97 -34 65 -89 123 -129 136 -18 6 -43 22
-55 36 l-24 24 59 60 c52 53 96 82 233 155 102 54 267 109 390 130 48 8 98 16
112 18 14 3 36 4 50 3 l25 -1 3 -706z m235 700 c121 -17 273 -57 344 -90 37
-17 97 -45 132 -61 70 -31 186 -105 214 -135 16 -18 15 -22 -21 -72 -20 -30
-41 -61 -47 -69 -10 -15 -65 -97 -141 -208 -34 -49 -35 -53 -21 -85 l13 -33
47 59 c70 88 159 221 197 293 l33 63 40 -38 c43 -42 157 -180 157 -191 0 -8
-135 -102 -145 -102 -3 0 -41 -27 -83 -59 -43 -33 -129 -93 -192 -135 -63 -41
-131 -87 -150 -101 -33 -25 -305 -212 -410 -281 l-47 -32 -6 436 c-9 554 -9
837 0 845 8 9 1 9 86 -4z m2505 -2683 l2 -208 -24 6 c-13 3 -94 15 -180 26
-196 25 -566 28 -756 5 -227 -26 -449 -77 -735 -167 -255 -80 -274 -85 -385
-112 -206 -51 -388 -68 -650 -63 -260 5 -400 23 -600 77 -63 17 -133 36 -155
41 -22 5 -78 23 -125 38 -47 16 -155 45 -240 65 -85 20 -216 52 -290 71 -264
68 -280 70 -575 70 -271 -1 -453 -15 -597 -49 -32 -7 -60 -11 -63 -8 -3 3 -5
90 -5 194 l0 188 580 0 c563 0 581 -1 635 -21 56 -21 198 -110 212 -133 5 -6
26 -27 49 -44 43 -35 56 -35 106 0 l27 19 103 -69 c134 -90 185 -116 368 -191
291 -118 670 -143 1012 -65 86 20 318 103 378 136 141 78 218 124 246 148 52
45 103 72 172 90 37 10 99 28 137 40 137 41 545 108 710 117 55 3 102 7 104 9
3 3 124 3 270 2 l266 -3 3 -209z m-4375 -203 c-7 -2 -19 -2 -25 0 -7 3 -2 5
12 5 14 0 19 -2 13 -5z"/>
<path d="M2834 1411 c-99 -109 -196 -224 -202 -241 -3 -9 49 -40 66 -40 5 0
21 17 35 38 13 20 38 51 54 67 17 17 39 48 51 70 11 23 41 72 66 109 49 74 50
75 38 94 -6 8 -38 -21 -108 -97z"/>
</g>
</svg>
